<svg xmlns="http://www.w3.org/2000/svg" xmlns:xlink="http://www.w3.org/1999/xlink" id="Layer_1" x="0px" y="0px" viewBox="0 0 381.4 351.5" style="enable-background:new 0 0 381.4 351.5;" xml:space="preserve"><style type="text/css">	.st0{fill:#0A2D74;}</style><g>	<path class="st0" d="M45.4,21.5h290.7c13.4,0,23.8,10.3,23.8,23.6v191c0,13.3-10.4,23.6-23.8,23.6H70.9c-3.2,0-6.2,1.4-8.2,3.8   l-41.1,48V45.1C21.6,31.8,32,21.5,45.4,21.5L45.4,21.5z M45.4,0C20.5,0,0,20.3,0,45.1v295.6c0,10,12.5,14.6,19,7l56.8-66.5h260.2   c24.9,0,45.4-20.3,45.4-45.1v-191C381.4,20.3,361,0,336.1,0L45.4,0L45.4,0z"></path>	<path class="st0" d="M69.7,101.8c-6-0.1-10.9,4.7-10.9,10.7c0,6,4.9,10.8,10.9,10.7h242.2c6,0.1,10.9-4.7,10.9-10.7   c0-6-4.9-10.8-10.9-10.7L69.7,101.8z"></path>	<path class="st0" d="M69.7,170.7c-6-0.1-10.9,4.7-10.9,10.7c0,6,4.9,10.8,10.9,10.7h108.4c6,0.1,10.9-4.8,10.9-10.7   c0-6-4.9-10.8-10.9-10.7H69.7z"></path></g></svg>