<?xml version="1.0" encoding="UTF-8"?>
<svg id="Camada_2" data-name="Camada 2" xmlns="http://www.w3.org/2000/svg" xmlns:xlink="http://www.w3.org/1999/xlink" viewBox="0 0 72 72">
  <defs>
    <style>
      .cls-1, .cls-2 {
        fill: none;
      }

      .cls-3 {
        clip-path: url(#clippath-1);
      }

      .cls-4 {
        clip-path: url(#clippath-3);
      }

      .cls-5 {
        clip-path: url(#clippath-2);
      }

      .cls-2 {
        stroke: #fff;
        stroke-miterlimit: 10;
        stroke-width: .87px;
      }

      .cls-6 {
        clip-path: url(#clippath);
      }
    </style>
    <clipPath id="clippath">
      <rect class="cls-1" width="72" height="72"/>
    </clipPath>
    <clipPath id="clippath-1">
      <rect class="cls-1" x="0" y="0" width="72" height="72"/>
    </clipPath>
    <clipPath id="clippath-2">
      <rect class="cls-1" x=".53" y=".53" width="71.19" height="71.23"/>
    </clipPath>
    <clipPath id="clippath-3">
      <rect class="cls-1" x=".53" y=".53" width="71.19" height="71.23"/>
    </clipPath>
  </defs>
  <g id="Camada_1-2" data-name="Camada 1">
    <g class="cls-6">
      <g class="cls-3">
        <g class="cls-5">
          <path d="M42.55,15.37h.07l13.02,5.92s.02.01,0,.01h-12.43l-.67-5.94ZM42.73,30.2h-13.22l.83-7.42h11.55l.83,7.42ZM55.65,37.62h-10.59l-.57-5.09,11.17,5.08s.02.01,0,.01ZM44.26,43.86l-8.18,3.67-8.11-3.65.54-4.77h15.22l.53,4.75ZM37.97,60.67l10.98-4.69s.05-.03.07-.05l4.55,11.38s0,.01-.01,0l-15.59-6.66ZM18.71,67.28s-.01,0,0,0l4.51-11.29s0,0,.01.01l10.97,4.68-15.48,6.61ZM24.5,52.74l2.98-7.45,6.8,3.06-9.78,4.4ZM47.98,54.51c.15.07.32.08.48.04l.02.05s-.08.01-.12.02l-12.29,5.24-12.27-5.24s-.03,0-.05-.01l.02-.06s.07.01.11.02c.11,0,.21-.02.3-.07l11.9-5.35,11.9,5.35ZM44.75,45.26l3.01,7.52-9.86-4.43,6.86-3.08ZM29.33,31.81l.28-.13h13.03l.28.13.65,5.81h-14.89l.66-5.81ZM16.59,37.61l11.17-5.08-.57,5.09h-10.59s-.02,0,0-.01h0ZM16.59,21.3s-.02,0,0-.01l13.02-5.92h.07l-.67,5.94h-12.42ZM41.06,15.37l.67,5.94h-11.22l.67-5.94h9.89ZM31.64,11.18l4.47-6.39s0,0,0,0c0,0,0,0,0,0l4.47,6.39.3,2.7h-9.56s.3-2.7.3-2.7ZM59.11,26.49c.41,0,.74-.33.74-.74v-3.71c0-.29-.17-.56-.43-.68l-16.31-7.42c-.1-.04-.2-.07-.31-.07h-.4l-.34-3.05c-.01-.12-.06-.24-.13-.34l-5.19-7.42c-.23-.33-.7-.41-1.03-.18-.07.05-.13.11-.18.18l-5.19,7.42c-.07.1-.12.22-.13.34l-.34,3.05h-.4c-.11,0-.21.02-.31.07l-16.31,7.42c-.26.12-.43.38-.43.68v3.71c0,.41.33.74.74.74s.74-.33.74-.74v-2.97h14.98l-.9,8.03-15.12,6.88c-.26.12-.43.38-.43.68v3.71c0,.41.33.74.74.74s.74-.33.74-.74v-2.97h13.14l-.52,4.64-9.85,24.65c-.15.38.03.81.41.96.09.03.18.05.27.05.1,0,.2-.02.29-.06l18.45-7.87,18.56,7.92c.38.16.81-.01.97-.39.08-.18.08-.38,0-.57l-9.87-24.7-.52-4.64h13.14v2.97c0,.41.33.74.74.74s.74-.33.74-.74v-3.71c0-.29-.17-.55-.43-.68l-15.12-6.88-.9-8.03h14.98v2.97c0,.41.33.74.74.74Z"/>
        </g>
        <g class="cls-4">
          <path class="cls-2" d="M42.55,15.37h.07l13.02,5.92s.02.01,0,.01h-12.43l-.67-5.94ZM42.73,30.2h-13.22l.83-7.42h11.55l.83,7.42ZM55.65,37.62h-10.59l-.57-5.09,11.17,5.08s.02.01,0,.01ZM44.26,43.86l-8.18,3.67-8.11-3.65.54-4.77h15.22l.53,4.75ZM37.97,60.67l10.98-4.69s.05-.03.07-.05l4.55,11.38s0,.01-.01,0l-15.59-6.66ZM18.71,67.28s-.01,0,0,0l4.51-11.29s0,0,.01.01l10.97,4.68-15.48,6.61ZM24.5,52.74l2.98-7.45,6.8,3.06-9.78,4.4ZM47.98,54.51c.15.07.32.08.48.04l.02.05s-.08.01-.12.02l-12.29,5.24-12.27-5.24s-.03,0-.05-.01l.02-.06s.07.01.11.02c.11,0,.21-.02.3-.07l11.9-5.35,11.9,5.35ZM44.75,45.26l3.01,7.52-9.86-4.43,6.86-3.08ZM29.33,31.81l.28-.13h13.03l.28.13.65,5.81h-14.89l.66-5.81ZM16.59,37.61l11.17-5.08-.57,5.09h-10.59s-.02,0,0-.01h0ZM16.59,21.3s-.02,0,0-.01l13.02-5.92h.07l-.67,5.94h-12.42ZM41.06,15.37l.67,5.94h-11.22l.67-5.94h9.89ZM31.64,11.18l4.47-6.39s0,0,0,0c0,0,0,0,0,0l4.47,6.39.3,2.7h-9.56s.3-2.7.3-2.7ZM59.11,26.49c.41,0,.74-.33.74-.74v-3.71c0-.29-.17-.56-.43-.68l-16.31-7.42c-.1-.04-.2-.07-.31-.07h-.4l-.34-3.05c-.01-.12-.06-.24-.13-.34l-5.19-7.42c-.23-.33-.7-.41-1.03-.18-.07.05-.13.11-.18.18l-5.19,7.42c-.07.1-.12.22-.13.34l-.34,3.05h-.4c-.11,0-.21.02-.31.07l-16.31,7.42c-.26.12-.43.38-.43.68v3.71c0,.41.33.74.74.74s.74-.33.74-.74v-2.97h14.98l-.9,8.03-15.12,6.88c-.26.12-.43.38-.43.68v3.71c0,.41.33.74.74.74s.74-.33.74-.74v-2.97h13.14l-.52,4.64-9.85,24.65c-.15.38.03.81.41.96.09.03.18.05.27.05.1,0,.2-.02.29-.06l18.45-7.87,18.56,7.92c.38.16.81-.01.97-.39.08-.18.08-.38,0-.57l-9.87-24.7-.52-4.64h13.14v2.97c0,.41.33.74.74.74s.74-.33.74-.74v-3.71c0-.29-.17-.55-.43-.68l-15.12-6.88-.9-8.03h14.98v2.97c0,.41.33.74.74.74Z"/>
        </g>
      </g>
    </g>
  </g>
</svg>