<?xml version="1.0" encoding="UTF-8"?>
<svg id="Camada_2" data-name="Camada 2" xmlns="http://www.w3.org/2000/svg" xmlns:xlink="http://www.w3.org/1999/xlink" viewBox="0 0 72 72">
  <defs>
    <style>
      .cls-1, .cls-2 {
        fill: none;
      }

      .cls-3 {
        clip-path: url(#clippath-1);
      }

      .cls-4 {
        clip-path: url(#clippath-3);
      }

      .cls-5 {
        clip-path: url(#clippath-2);
      }

      .cls-2 {
        stroke: #fff;
        stroke-miterlimit: 10;
        stroke-width: .87px;
      }

      .cls-6 {
        clip-path: url(#clippath);
      }
    </style>
    <clipPath id="clippath">
      <rect class="cls-1" width="72" height="72"/>
    </clipPath>
    <clipPath id="clippath-1">
      <rect class="cls-1" x="0" y="0" width="72" height="72"/>
    </clipPath>
    <clipPath id="clippath-2">
      <rect class="cls-1" x=".53" y=".53" width="71.19" height="71.23"/>
    </clipPath>
    <clipPath id="clippath-3">
      <rect class="cls-1" x=".53" y=".53" width="71.19" height="71.23"/>
    </clipPath>
  </defs>
  <g id="Camada_1-2" data-name="Camada 1">
    <g class="cls-6">
      <g class="cls-3">
        <g class="cls-5">
          <path d="M58.86,56.17L41.69,15.37h1.39l20.03,40.81h-4.25ZM17.18,50.98l1.87-4.45h34.14l1.87,4.45H17.18ZM13.38,56.17h-4.25L29.17,15.37h1.39L13.38,56.17ZM5.36,50.98l2.62-4.45h4.23l-2.19,4.45h-4.67ZM12.79,38.37l1.75-2.97h3.14l-1.46,2.97h-3.44ZM18.91,27.98l1.31-2.23h2.2l-1.09,2.23h-2.42ZM24.15,19.08l.87-1.48h1.4l-.73,1.48h-1.54ZM41.01,17.59l.62,1.48h-11.03l.62-1.48h9.78ZM28.41,24.27l1.56-3.71h12.29l1.56,3.71h-15.41ZM26.86,27.98l.94-2.23h16.66l.94,2.23h-18.53ZM24.36,33.91l1.87-4.45h19.78l1.87,4.45h-23.52ZM22.49,38.37l1.25-2.97h24.77l1.25,2.97h-27.27ZM21.86,39.85h28.52l2.19,5.19H19.68l2.19-5.19ZM47.22,17.59l.87,1.48h-1.54l-.73-1.48h1.4ZM52.02,25.75l1.31,2.23h-2.42l-1.09-2.23h2.2ZM57.71,35.4l1.75,2.97h-3.43l-1.46-2.97h3.14ZM64.26,46.53l2.62,4.45h-4.67l-2.18-4.45h4.23ZM69.47,52.46l-4.37-7.42h-5.81l-2.55-5.19h5.3l-3.49-5.94h-4.72l-2.18-4.45h4.28s-3.06-5.19-3.06-5.19h-3.77l-1.82-3.71h3.41l-2.62-4.45h-2.98l-1.09-2.23h-4.54l.94,2.23h-8.54l.94-2.23h-4.54l-1.09,2.23h-2.97s-2.62,4.45-2.62,4.45h3.41l-1.82,3.71h-3.78l-3.06,5.19h4.28l-2.19,4.45h-4.72l-3.5,5.94h5.3l-2.55,5.19h-5.81l-4.37,7.42h6.54l-2.55,5.19h7.62l2.19-5.19h39.14l2.19,5.19h7.61s-2.55-5.19-2.55-5.19h6.53Z"/>
        </g>
        <g class="cls-4">
          <path class="cls-2" d="M58.86,56.17L41.69,15.37h1.39l20.03,40.81h-4.25ZM17.18,50.98l1.87-4.45h34.14l1.87,4.45H17.18ZM13.38,56.17h-4.25L29.17,15.37h1.39L13.38,56.17ZM5.36,50.98l2.62-4.45h4.23l-2.19,4.45h-4.67ZM12.79,38.37l1.75-2.97h3.14l-1.46,2.97h-3.44ZM18.91,27.98l1.31-2.23h2.2l-1.09,2.23h-2.42ZM24.15,19.08l.87-1.48h1.4l-.73,1.48h-1.54ZM41.01,17.59l.62,1.48h-11.03l.62-1.48h9.78ZM28.41,24.27l1.56-3.71h12.29l1.56,3.71h-15.41ZM26.86,27.98l.94-2.23h16.66l.94,2.23h-18.53ZM24.36,33.91l1.87-4.45h19.78l1.87,4.45h-23.52ZM22.49,38.37l1.25-2.97h24.77l1.25,2.97h-27.27ZM21.86,39.85h28.52l2.19,5.19H19.68l2.19-5.19ZM47.22,17.59l.87,1.48h-1.54l-.73-1.48h1.4ZM52.02,25.75l1.31,2.23h-2.42l-1.09-2.23h2.2ZM57.71,35.4l1.75,2.97h-3.43l-1.46-2.97h3.14ZM64.26,46.53l2.62,4.45h-4.67l-2.18-4.45h4.23ZM69.47,52.46l-4.37-7.42h-5.81l-2.55-5.19h5.3l-3.49-5.94h-4.72l-2.18-4.45h4.28s-3.06-5.19-3.06-5.19h-3.77l-1.82-3.71h3.41l-2.62-4.45h-2.98l-1.09-2.23h-4.54l.94,2.23h-8.54l.94-2.23h-4.54l-1.09,2.23h-2.97s-2.62,4.45-2.62,4.45h3.41l-1.82,3.71h-3.78l-3.06,5.19h4.28l-2.19,4.45h-4.72l-3.5,5.94h5.3l-2.55,5.19h-5.81l-4.37,7.42h6.54l-2.55,5.19h7.62l2.19-5.19h39.14l2.19,5.19h7.61s-2.55-5.19-2.55-5.19h6.53Z"/>
        </g>
      </g>
    </g>
  </g>
</svg>