<svg xmlns="http://www.w3.org/2000/svg" xmlns:xlink="http://www.w3.org/1999/xlink" id="Layer_1" x="0px" y="0px" viewBox="0 0 145.8 145.9" style="enable-background:new 0 0 145.8 145.9;" xml:space="preserve"><style type="text/css">	.st0{fill:#0A2D74;}</style><path class="st0" d="M35.5,117.8h95.2c4.1,0,7.5-3.3,7.5-7.5V15.1c0-4.1-3.4-7.5-7.5-7.5l0,0H35.5c-4.1,0-7.5,3.4-7.5,7.5  c0,0,0,0,0,0v95.2C28.1,114.4,31.4,117.8,35.5,117.8z M116,53c1.4,0,2.5,1.1,2.5,2.5S117.3,58,116,58h-12.6c-1.4,0-2.5-1.2-2.5-2.6  c0-0.6,0.3-1.3,0.7-1.7l10.6-10.4c1.7-1.9,1.7-4.7-0.1-6.6c-1.3-1.1-3.2-1-4.3,0.3c-1.5,1.5-3.5,5.3-6.1,3.1c-2.5-2.3,1-4.7,2.3-6.4  c3.2-3.3,8.5-3.5,11.8-0.3c1.8,1.7,2.8,4.2,2.6,6.7c0.3,5.6-5.7,9.3-9,12.9L116,53z M47.9,48.8c0-1.4,1.1-2.5,2.5-2.5  c1.4,0,2.5,1.1,2.5,2.5v4c5.3-4.6,13.3-4.1,17.9,1.1c0.4,0.5,0.8,1,1.2,1.5c2.3-3.6,6.4-5.9,10.7-5.9c7.6,0.3,13.6,6.6,13.4,14.3  v28.1c0,1.4-1.1,2.5-2.5,2.5c-1.4,0-2.5-1.1-2.5-2.5V63.8c-0.3-12.3-16.2-12.1-16.5,0v28.1c0,1.4-1.1,2.5-2.5,2.5  c-1.4,0-2.5-1.1-2.5-2.5V63.8c0.6-4.5-2.6-8.6-7.2-9.2s-8.6,2.6-9.2,7.2c-0.1,0.7-0.1,1.3,0,2l-0.2,28.2c0,1.4-1.1,2.5-2.5,2.5  c-1.4,0-2.5-1.1-2.5-2.5L47.9,48.8z"></path><path class="st0" d="M145.6,135.8c0.4-0.9,0.2-2-0.5-2.7l-8.5-8.5c-1-1-2.6-1-3.6,0c-1,1-1,2.6,0,3.6c0,0,0,0,0,0l0,0l4.2,4.2H18.4  c-2.7,0-4.9-2.2-4.9-4.9V8.6l4.2,4.2c1,1,2.6,0.9,3.5-0.1c0.9-1,0.9-2.5,0-3.5l-8.5-8.5C12.1,0,11-0.2,10,0.2  C9.7,0.3,0.7,9.3,0.7,9.3c-1,1-1,2.6,0,3.6c1,1,2.5,1,3.5,0l4.2-4.2v118.8c0,5.5,4.4,9.9,9.9,9.9h118.8l-4.2,4.2c-1,1-1,2.6,0,3.6  c1,1,2.6,1,3.6,0l0,0C136.6,145.1,145.5,136.1,145.6,135.8z"></path></svg>