<?xml version="1.0" encoding="UTF-8"?>
<svg id="Camada_2" data-name="Camada 2" xmlns="http://www.w3.org/2000/svg" xmlns:xlink="http://www.w3.org/1999/xlink" viewBox="0 0 72 72">
  <defs>
    <style>
      .cls-1, .cls-2 {
        fill: none;
      }

      .cls-3 {
        clip-path: url(#clippath-1);
      }

      .cls-4 {
        clip-path: url(#clippath-3);
      }

      .cls-5 {
        clip-path: url(#clippath-4);
      }

      .cls-6 {
        clip-path: url(#clippath-2);
      }

      .cls-7 {
        clip-path: url(#clippath-5);
      }

      .cls-2 {
        stroke: #fff;
        stroke-miterlimit: 10;
        stroke-width: .87px;
      }

      .cls-8 {
        clip-path: url(#clippath);
      }
    </style>
    <clipPath id="clippath">
      <rect class="cls-1" width="72" height="72"/>
    </clipPath>
    <clipPath id="clippath-1">
      <rect class="cls-1" x="0" y="0" width="72" height="72"/>
    </clipPath>
    <clipPath id="clippath-2">
      <rect class="cls-1" x=".53" y=".53" width="71.19" height="71.23"/>
    </clipPath>
    <clipPath id="clippath-3">
      <rect class="cls-1" x=".53" y=".53" width="71.19" height="71.23"/>
    </clipPath>
    <clipPath id="clippath-4">
      <rect class="cls-1" x=".53" y=".53" width="71.19" height="71.23"/>
    </clipPath>
    <clipPath id="clippath-5">
      <rect class="cls-1" x=".53" y=".53" width="71.19" height="71.23"/>
    </clipPath>
  </defs>
  <g id="Camada_1-2" data-name="Camada 1">
    <g class="cls-8">
      <g class="cls-3">
        <g class="cls-6">
          <rect x="4.97" y="54.69" width="62.29" height="1.48"/>
        </g>
        <g class="cls-4">
          <rect class="cls-2" x="4.97" y="54.69" width="62.29" height="1.48"/>
        </g>
        <g class="cls-5">
          <path d="M28.96,26.6l-10.97-9.14s0-.01,0-.01l.7-.15c.16-.03.33-.02.48.05l20.44,9.18.44.2.47-.1,17.21-3.61c.21-.04.42-.06.64-.05,2.34,0,5.65,1.15,6.31,1.82-.06.72-2.06,1.71-3.83,2.08l-28.74,6.04c-3.35.7-6.76,1.06-10.18,1.06-1.27,0-2.55-.05-3.81-.15l-5.69-.44c-.26-.02-.49-.16-.62-.39l-4.11-7,.5-.11s.03,0,.04,0c.05,0,.1.02.14.05l6.43,5.51.55.48.71-.15,12.21-2.56,1.1-.23,1.37,1.12c.32.26.78.21,1.04-.1.26-.32.21-.78-.1-1.04l-2.77-2.34ZM10.55,33.74c.38.64,1.04,1.06,1.78,1.11l5.69.44c1.31.1,2.62.15,3.92.15,3.52,0,7.04-.36,10.48-1.09l28.74-6.04s5.55-1.17,4.97-3.94c-.31-1.47-5.11-2.89-7.76-2.89-.32,0-.63.02-.94.08l-17.21,3.62-20.44-9.18c-.29-.13-.61-.2-.93-.2-.16,0-.31.02-.47.05l-2.57.54c-.31.06-.5.36-.44.67.03.13.09.24.19.32l12.44,10.37-12.21,2.56-6.43-5.51c-.4-.34-.94-.48-1.46-.37l-1.75.36c-.31.07-.5.37-.43.67.01.06.03.11.06.16l4.76,8.11Z"/>
        </g>
        <g class="cls-7">
          <path class="cls-2" d="M28.96,26.6l-10.97-9.14s0-.01,0-.01l.7-.15c.16-.03.33-.02.48.05l20.44,9.18.44.2.47-.1,17.21-3.61c.21-.04.42-.06.64-.05,2.34,0,5.65,1.15,6.31,1.82-.06.72-2.06,1.71-3.83,2.08l-28.74,6.04c-3.35.7-6.76,1.06-10.18,1.06-1.27,0-2.55-.05-3.81-.15l-5.69-.44c-.26-.02-.49-.16-.62-.39l-4.11-7,.5-.11s.03,0,.04,0c.05,0,.1.02.14.05l6.43,5.51.55.48.71-.15,12.21-2.56,1.1-.23,1.37,1.12c.32.26.78.21,1.04-.1.26-.32.21-.78-.1-1.04l-2.77-2.34ZM10.55,33.74c.38.64,1.04,1.06,1.78,1.11l5.69.44c1.31.1,2.62.15,3.92.15,3.52,0,7.04-.36,10.48-1.09l28.74-6.04s5.55-1.17,4.97-3.94c-.31-1.47-5.11-2.89-7.76-2.89-.32,0-.63.02-.94.08l-17.21,3.62-20.44-9.18c-.29-.13-.61-.2-.93-.2-.16,0-.31.02-.47.05l-2.57.54c-.31.06-.5.36-.44.67.03.13.09.24.19.32l12.44,10.37-12.21,2.56-6.43-5.51c-.4-.34-.94-.48-1.46-.37l-1.75.36c-.31.07-.5.37-.43.67.01.06.03.11.06.16l4.76,8.11Z"/>
        </g>
      </g>
    </g>
  </g>
</svg>