<?xml version="1.0" encoding="UTF-8"?>
<svg id="Camada_2" data-name="Camada 2" xmlns="http://www.w3.org/2000/svg" xmlns:xlink="http://www.w3.org/1999/xlink" viewBox="0 0 72 72">
  <defs>
    <style>
      .cls-1, .cls-2, .cls-3 {
        fill: none;
      }

      .cls-4 {
        clip-path: url(#clippath-17);
      }

      .cls-5 {
        clip-path: url(#clippath-19);
      }

      .cls-6 {
        clip-path: url(#clippath-11);
      }

      .cls-7 {
        clip-path: url(#clippath-16);
      }

      .cls-8 {
        clip-path: url(#clippath-18);
      }

      .cls-9 {
        clip-path: url(#clippath-10);
      }

      .cls-10 {
        clip-path: url(#clippath-15);
      }

      .cls-11 {
        clip-path: url(#clippath-13);
      }

      .cls-12 {
        clip-path: url(#clippath-14);
      }

      .cls-13 {
        clip-path: url(#clippath-12);
      }

      .cls-14 {
        clip-path: url(#clippath-1);
      }

      .cls-15 {
        clip-path: url(#clippath-3);
      }

      .cls-16 {
        clip-path: url(#clippath-4);
      }

      .cls-17 {
        clip-path: url(#clippath-2);
      }

      .cls-18 {
        clip-path: url(#clippath-7);
      }

      .cls-19 {
        clip-path: url(#clippath-6);
      }

      .cls-20 {
        clip-path: url(#clippath-9);
      }

      .cls-21 {
        clip-path: url(#clippath-8);
      }

      .cls-22 {
        clip-path: url(#clippath-5);
      }

      .cls-2 {
        stroke: #fff;
        stroke-miterlimit: 10;
        stroke-width: .87px;
      }

      .cls-3 {
        clip-rule: evenodd;
      }

      .cls-23 {
        clip-path: url(#clippath);
      }
    </style>
    <clipPath id="clippath">
      <rect class="cls-1" width="72" height="72"/>
    </clipPath>
    <clipPath id="clippath-1">
      <rect class="cls-1" x="0" y="0" width="72" height="72"/>
    </clipPath>
    <clipPath id="clippath-2">
      <rect class="cls-1" x=".53" y=".53" width="71.19" height="71.23"/>
    </clipPath>
    <clipPath id="clippath-3">
      <rect class="cls-1" x=".53" y=".53" width="71.19" height="71.23"/>
    </clipPath>
    <clipPath id="clippath-4">
      <rect class="cls-1" x=".53" y=".53" width="71.19" height="71.23"/>
    </clipPath>
    <clipPath id="clippath-5">
      <rect class="cls-1" x=".53" y=".53" width="71.19" height="71.23"/>
    </clipPath>
    <clipPath id="clippath-6">
      <rect class="cls-1" x=".53" y=".53" width="71.19" height="71.23"/>
    </clipPath>
    <clipPath id="clippath-7">
      <rect class="cls-1" x=".53" y=".53" width="71.19" height="71.23"/>
    </clipPath>
    <clipPath id="clippath-8">
      <rect class="cls-1" x=".53" y=".53" width="71.19" height="71.23"/>
    </clipPath>
    <clipPath id="clippath-9">
      <rect class="cls-1" x=".53" y=".53" width="71.19" height="71.23"/>
    </clipPath>
    <clipPath id="clippath-10">
      <rect class="cls-1" x=".53" y=".53" width="71.19" height="71.23"/>
    </clipPath>
    <clipPath id="clippath-11">
      <rect class="cls-1" x=".53" y=".53" width="71.19" height="71.23"/>
    </clipPath>
    <clipPath id="clippath-12">
      <polyline class="cls-3" points=".53 .53 71.71 .53 71.71 71.75 .53 71.75"/>
    </clipPath>
    <clipPath id="clippath-13">
      <polyline class="cls-3" points=".53 .53 71.71 .53 71.71 71.75 .53 71.75"/>
    </clipPath>
    <clipPath id="clippath-14">
      <polyline class="cls-3" points=".53 .53 71.71 .53 71.71 71.75 .53 71.75"/>
    </clipPath>
    <clipPath id="clippath-15">
      <polyline class="cls-3" points=".53 .53 71.71 .53 71.71 71.75 .53 71.75"/>
    </clipPath>
    <clipPath id="clippath-16">
      <polyline class="cls-3" points=".53 .53 71.71 .53 71.71 71.75 .53 71.75"/>
    </clipPath>
    <clipPath id="clippath-17">
      <polyline class="cls-3" points=".53 .53 71.71 .53 71.71 71.75 .53 71.75"/>
    </clipPath>
    <clipPath id="clippath-18">
      <polyline class="cls-3" points=".53 .53 71.71 .53 71.71 71.75 .53 71.75"/>
    </clipPath>
    <clipPath id="clippath-19">
      <polyline class="cls-3" points=".53 .53 71.71 .53 71.71 71.75 .53 71.75"/>
    </clipPath>
  </defs>
  <g id="Camada_1-2" data-name="Camada 1">
    <g class="cls-23">
      <g class="cls-14">
        <g class="cls-17">
          <path d="M36.12,21.31c8.19,0,14.84,6.64,14.84,14.84,0,8.2-6.64,14.85-14.83,14.85-8.19,0-14.84-6.64-14.84-14.84h0c0-8.2,6.64-14.84,14.83-14.85ZM36.12,52.48c9.01,0,16.32-7.3,16.32-16.32,0-9.02-7.3-16.33-16.31-16.33-9.01,0-16.32,7.3-16.32,16.32h0c0,9.02,7.3,16.33,16.31,16.33h0Z"/>
        </g>
        <g class="cls-15">
          <path class="cls-2" d="M36.12,21.31c8.19,0,14.84,6.64,14.84,14.84,0,8.2-6.64,14.85-14.83,14.85-8.19,0-14.84-6.64-14.84-14.84h0c0-8.2,6.64-14.84,14.83-14.85ZM36.12,52.48c9.01,0,16.32-7.3,16.32-16.32,0-9.02-7.3-16.33-16.31-16.33-9.01,0-16.32,7.3-16.32,16.32h0c0,9.02,7.3,16.33,16.31,16.33h0Z"/>
        </g>
        <g class="cls-16">
          <rect x="35.38" y="3.49" width="1.48" height="13.35"/>
        </g>
        <g class="cls-22">
          <rect class="cls-2" x="35.38" y="3.49" width="1.48" height="13.35"/>
        </g>
        <g class="cls-19">
          <rect x="35.38" y="55.43" width="1.48" height="13.35"/>
        </g>
        <g class="cls-18">
          <rect class="cls-2" x="35.38" y="55.43" width="1.48" height="13.35"/>
        </g>
        <g class="cls-21">
          <rect x="55.4" y="35.4" width="13.35" height="1.48"/>
        </g>
        <g class="cls-20">
          <rect class="cls-2" x="55.4" y="35.4" width="13.35" height="1.48"/>
        </g>
        <g class="cls-9">
          <rect x="3.49" y="35.4" width="13.35" height="1.48"/>
        </g>
        <g class="cls-6">
          <rect class="cls-2" x="3.49" y="35.4" width="13.35" height="1.48"/>
        </g>
        <g class="cls-13">
          <rect x="53.73" y="47.83" width="1.48" height="13.35" transform="translate(-22.58 54.5) rotate(-45.01)"/>
        </g>
        <g class="cls-11">
          <rect class="cls-2" x="53.73" y="47.83" width="1.48" height="13.35" transform="translate(-22.58 54.5) rotate(-45.01)"/>
        </g>
        <g class="cls-12">
          <rect x="17.03" y="11.1" width="1.48" height="13.35" transform="translate(-7.37 17.78) rotate(-45.01)"/>
        </g>
        <g class="cls-10">
          <rect class="cls-2" x="17.03" y="11.1" width="1.48" height="13.35" transform="translate(-7.37 17.78) rotate(-45.01)"/>
        </g>
        <g class="cls-7">
          <rect x="11.09" y="53.76" width="13.35" height="1.48" transform="translate(-33.34 28.54) rotate(-45.01)"/>
        </g>
        <g class="cls-4">
          <rect class="cls-2" x="11.09" y="53.76" width="13.35" height="1.48" transform="translate(-33.34 28.54) rotate(-45.01)"/>
        </g>
        <g class="cls-8">
          <rect x="47.8" y="17.04" width="13.35" height="1.48" transform="translate(3.39 43.74) rotate(-45.01)"/>
        </g>
        <g class="cls-5">
          <rect class="cls-2" x="47.8" y="17.04" width="13.35" height="1.48" transform="translate(3.39 43.74) rotate(-45.01)"/>
        </g>
      </g>
    </g>
  </g>
</svg>