<?xml version="1.0" encoding="UTF-8"?>
<svg id="Camada_2" data-name="Camada 2" xmlns="http://www.w3.org/2000/svg" xmlns:xlink="http://www.w3.org/1999/xlink" viewBox="0 0 72 72">
  <defs>
    <style>
      .cls-1, .cls-2 {
        fill: none;
      }

      .cls-3 {
        clip-path: url(#clippath-1);
      }

      .cls-4 {
        clip-path: url(#clippath-3);
      }

      .cls-5 {
        clip-path: url(#clippath-4);
      }

      .cls-6 {
        clip-path: url(#clippath-2);
      }

      .cls-7 {
        clip-path: url(#clippath-5);
      }

      .cls-2 {
        stroke: #fff;
        stroke-miterlimit: 10;
        stroke-width: .87px;
      }

      .cls-8 {
        clip-path: url(#clippath);
      }
    </style>
    <clipPath id="clippath">
      <rect class="cls-1" width="72" height="72"/>
    </clipPath>
    <clipPath id="clippath-1">
      <rect class="cls-1" x="0" y="0" width="72" height="72"/>
    </clipPath>
    <clipPath id="clippath-2">
      <rect class="cls-1" x=".53" y=".53" width="71.19" height="71.23"/>
    </clipPath>
    <clipPath id="clippath-3">
      <rect class="cls-1" x=".53" y=".53" width="71.19" height="71.23"/>
    </clipPath>
    <clipPath id="clippath-4">
      <rect class="cls-1" x=".53" y=".53" width="71.19" height="71.23"/>
    </clipPath>
    <clipPath id="clippath-5">
      <rect class="cls-1" x=".53" y=".53" width="71.19" height="71.23"/>
    </clipPath>
  </defs>
  <g id="Camada_1-2" data-name="Camada 1">
    <g class="cls-8">
      <g class="cls-3">
        <g class="cls-6">
          <path d="M36.12,16.56c-1.18,0-2.14-.96-2.14-2.14s.96-2.14,2.14-2.14,2.14.96,2.14,2.14h0c0,1.18-.96,2.14-2.14,2.14ZM39.74,14.42c0-2-1.62-3.63-3.62-3.63-2,0-3.62,1.62-3.63,3.63,0,2,1.62,3.63,3.62,3.63h0c2,0,3.62-1.62,3.62-3.63Z"/>
        </g>
        <g class="cls-4">
          <path class="cls-2" d="M36.12,16.56c-1.18,0-2.14-.96-2.14-2.14s.96-2.14,2.14-2.14,2.14.96,2.14,2.14h0c0,1.18-.96,2.14-2.14,2.14ZM39.74,14.42c0-2-1.62-3.63-3.62-3.63-2,0-3.62,1.62-3.63,3.63,0,2,1.62,3.63,3.62,3.63h0c2,0,3.62-1.62,3.62-3.63Z"/>
        </g>
        <g class="cls-5">
          <path d="M59.86,46.41c-.17.12-.38.15-.58.1l-2.75-1.11-.23.78c-2.01,6.77-7.25,12.09-13.99,14.19l-5.87,3.14c-.21.11-.47.11-.69,0l-5.77-3.1-.13-.05c-6.73-2.1-11.98-7.42-13.99-14.19l-.23-.78-2.75,1.11c-.2.06-.41.02-.58-.1-.13-.09-.2-.24-.17-.4l1.11-8.72c.01-.16.11-.31.25-.39.18-.05.37-.02.53.07l6.99,5.38c.13.08.19.23.17.38-.03.17-.14.32-.29.4l-2.59,1.09.17.63c1.71,6.36,7.02,10.71,14.58,11.93l.83.14.85-29.07h-13.43v-2.84h13.41v-4.21l-.52-.17c-3.5-1.01-5.51-4.66-4.51-8.15,1.01-3.5,4.65-5.51,8.15-4.51,3.5,1,5.51,4.65,4.51,8.15-.6,2.1-2.2,3.76-4.27,4.44l-.52.17v4.29h13.41v2.84h-13.43l.85,29.08.83-.13c7.5-1.21,12.78-5.56,14.49-11.95l.17-.63-2.55-1.06c-.17-.08-.29-.24-.33-.43-.02-.17.06-.33.21-.41l6.9-5.32c.17-.11.37-.15.57-.1.14.07.24.22.25.38l1.11,8.74c.02.15-.04.3-.17.38ZM61.49,45.82l-1.11-8.74c-.09-.69-.54-1.29-1.18-1.56l-.09-.03c-.64-.19-1.34-.08-1.89.31l-6.9,5.32c-.6.4-.92,1.11-.82,1.83.12.68.56,1.27,1.19,1.56l1.38.58c-1.66,5.29-5.99,8.84-12.28,10.09l-.76-25.84h13.39v-5.81h-13.41v-1.74c3.46-1.38,5.52-4.96,4.96-8.65-.72-4.35-4.82-7.28-9.16-6.57-4.34.72-7.28,4.82-6.56,9.17.46,2.77,2.34,5.1,4.95,6.12v1.67h-13.41v5.81h13.39l-.76,25.83c-6.26-1.25-10.71-4.88-12.37-10.08l1.43-.6c.61-.3,1.03-.88,1.14-1.54.11-.7-.19-1.4-.77-1.8l-6.99-5.38c-.54-.36-1.22-.47-1.84-.28l-.09.03c-.65.28-1.1.87-1.18,1.57l-1.1,8.72c-.11.72.21,1.43.82,1.83.54.36,1.22.47,1.84.28l1.37-.55c2.31,6.86,7.75,12.2,14.65,14.38l5.72,3.08c.31.16.66.24,1.01.24.36,0,.72-.08,1.04-.25l5.69-3.07c6.9-2.18,12.35-7.52,14.66-14.38l1.3.52.07.02c.63.19,1.3.08,1.85-.28.6-.4.92-1.1.81-1.82Z"/>
        </g>
        <g class="cls-7">
          <path class="cls-2" d="M59.86,46.41c-.17.12-.38.15-.58.1l-2.75-1.11-.23.78c-2.01,6.77-7.25,12.09-13.99,14.19l-5.87,3.14c-.21.11-.47.11-.69,0l-5.77-3.1-.13-.05c-6.73-2.1-11.98-7.42-13.99-14.19l-.23-.78-2.75,1.11c-.2.06-.41.02-.58-.1-.13-.09-.2-.24-.17-.4l1.11-8.72c.01-.16.11-.31.25-.39.18-.05.37-.02.53.07l6.99,5.38c.13.08.19.23.17.38-.03.17-.14.32-.29.4l-2.59,1.09.17.63c1.71,6.36,7.02,10.71,14.58,11.93l.83.14.85-29.07h-13.43v-2.84h13.41v-4.21l-.52-.17c-3.5-1.01-5.51-4.66-4.51-8.15,1.01-3.5,4.65-5.51,8.15-4.51,3.5,1,5.51,4.65,4.51,8.15-.6,2.1-2.2,3.76-4.27,4.44l-.52.17v4.29h13.41v2.84h-13.43l.85,29.08.83-.13c7.5-1.21,12.78-5.56,14.49-11.95l.17-.63-2.55-1.06c-.17-.08-.29-.24-.33-.43-.02-.17.06-.33.21-.41l6.9-5.32c.17-.11.37-.15.57-.1.14.07.24.22.25.38l1.11,8.74c.02.15-.04.3-.17.38ZM61.49,45.82l-1.11-8.74c-.09-.69-.54-1.29-1.18-1.56l-.09-.03c-.64-.19-1.34-.08-1.89.31l-6.9,5.32c-.6.4-.92,1.11-.82,1.83.12.68.56,1.27,1.19,1.56l1.38.58c-1.66,5.29-5.99,8.84-12.28,10.09l-.76-25.84h13.39v-5.81h-13.41v-1.74c3.46-1.38,5.52-4.96,4.96-8.65-.72-4.35-4.82-7.28-9.16-6.57-4.34.72-7.28,4.82-6.56,9.17.46,2.77,2.34,5.1,4.95,6.12v1.67h-13.41v5.81h13.39l-.76,25.83c-6.26-1.25-10.71-4.88-12.37-10.08l1.43-.6c.61-.3,1.03-.88,1.14-1.54.11-.7-.19-1.4-.77-1.8l-6.99-5.38c-.54-.36-1.22-.47-1.84-.28l-.09.03c-.65.28-1.1.87-1.18,1.57l-1.1,8.72c-.11.72.21,1.43.82,1.83.54.36,1.22.47,1.84.28l1.37-.55c2.31,6.86,7.75,12.2,14.65,14.38l5.72,3.08c.31.16.66.24,1.01.24.36,0,.72-.08,1.04-.25l5.69-3.07c6.9-2.18,12.35-7.52,14.66-14.38l1.3.52.07.02c.63.19,1.3.08,1.85-.28.6-.4.92-1.1.81-1.82Z"/>
        </g>
      </g>
    </g>
  </g>
</svg>