<?xml version="1.0" encoding="UTF-8"?>
<svg id="Camada_2" data-name="Camada 2" xmlns="http://www.w3.org/2000/svg" xmlns:xlink="http://www.w3.org/1999/xlink" viewBox="0 0 72 72">
  <defs>
    <style>
      .cls-1, .cls-2 {
        fill: none;
      }

      .cls-3 {
        clip-path: url(#clippath-1);
      }

      .cls-4 {
        clip-path: url(#clippath-3);
      }

      .cls-5 {
        clip-path: url(#clippath-4);
      }

      .cls-6 {
        clip-path: url(#clippath-2);
      }

      .cls-7 {
        clip-path: url(#clippath-7);
      }

      .cls-8 {
        clip-path: url(#clippath-6);
      }

      .cls-9 {
        clip-path: url(#clippath-5);
      }

      .cls-2 {
        stroke: #fff;
        stroke-miterlimit: 10;
        stroke-width: .87px;
      }

      .cls-10 {
        clip-path: url(#clippath);
      }
    </style>
    <clipPath id="clippath">
      <rect class="cls-1" width="72" height="72"/>
    </clipPath>
    <clipPath id="clippath-1">
      <rect class="cls-1" x="0" y="0" width="72" height="72"/>
    </clipPath>
    <clipPath id="clippath-2">
      <rect class="cls-1" x=".53" y=".53" width="71.19" height="71.23"/>
    </clipPath>
    <clipPath id="clippath-3">
      <rect class="cls-1" x=".53" y=".53" width="71.19" height="71.23"/>
    </clipPath>
    <clipPath id="clippath-4">
      <rect class="cls-1" x=".53" y=".53" width="71.19" height="71.23"/>
    </clipPath>
    <clipPath id="clippath-5">
      <rect class="cls-1" x=".53" y=".53" width="71.19" height="71.23"/>
    </clipPath>
    <clipPath id="clippath-6">
      <rect class="cls-1" x=".53" y=".53" width="71.19" height="71.23"/>
    </clipPath>
    <clipPath id="clippath-7">
      <rect class="cls-1" x=".53" y=".53" width="71.19" height="71.23"/>
    </clipPath>
  </defs>
  <g id="Camada_1-2" data-name="Camada 1">
    <g class="cls-10">
      <g class="cls-3">
        <g class="cls-6">
          <path d="M16.84,59.19c-2.46,0-4.45-1.99-4.45-4.45s1.99-4.45,4.45-4.45,4.45,1.99,4.45,4.45c0,2.46-1.99,4.45-4.45,4.45h0ZM16.84,48.8c-3.28,0-5.93,2.66-5.93,5.94s2.66,5.94,5.93,5.94,5.93-2.66,5.93-5.94c0-3.28-2.66-5.93-5.93-5.94Z"/>
        </g>
        <g class="cls-4">
          <path class="cls-2" d="M16.84,59.19c-2.46,0-4.45-1.99-4.45-4.45s1.99-4.45,4.45-4.45,4.45,1.99,4.45,4.45c0,2.46-1.99,4.45-4.45,4.45h0ZM16.84,48.8c-3.28,0-5.93,2.66-5.93,5.94s2.66,5.94,5.93,5.94,5.93-2.66,5.93-5.94c0-3.28-2.66-5.93-5.93-5.94Z"/>
        </g>
        <g class="cls-5">
          <path d="M52.44,29.5h2.97c1.98.04,3.71,1.34,4.29,3.23l1.48,5.1c.05.18.11.36.19.53h-8.92v-8.86ZM10.21,12.8c5.91-.59,13.9.22,20.58,1.99l-8.01,21.85c-4.2-2.02-8.17-4.47-11.87-7.31l-.05-.04c-1.79-1.36-3.48-2.85-5.06-4.46l4.41-12.04ZM41.71,22.26c2.75,5.94.17,12.99-5.77,15.75-2.85,1.32-6.11,1.46-9.06.37-.9-.33-1.81-.7-2.74-1.12l8.09-22.08c.98.29,1.92.59,2.82.93,2.96,1.08,5.36,3.29,6.67,6.15ZM67.57,41.97l-3.93-2.97c-.51-.38-.88-.93-1.04-1.56l-1.48-5.12c-.76-2.53-3.07-4.27-5.71-4.3h-8.91v14.79H10.91v-11.63c4.74,3.55,9.94,6.44,15.46,8.59,6.92,2.54,14.58-1.01,17.12-7.93,2.54-6.92-1.01-14.59-7.93-17.13-7.6-2.79-18.52-4.2-25.96-3.34l-.45.05-5.05,13.76.31.33c1.56,1.63,3.24,3.15,5.02,4.53v12.76H3.5v11.87h5.93c0-.5.06-1,.16-1.48h-4.61v-8.9h41.52v8.9h-22.4c.1.49.15.99.16,1.48h24.48c0-.5.06-1,.16-1.48h-.9v-23.7s2.97,0,2.97,0v10.35h11.4c.12.12.26.24.4.35l3.89,2.94c.38.28.61.73.62,1.2v7.37c0,.82-.66,1.48-1.48,1.48h-2.39c.1.49.15.99.15,1.48h2.23c1.64,0,2.96-1.33,2.97-2.97v-7.37c0-.93-.44-1.81-1.19-2.37Z"/>
        </g>
        <g class="cls-9">
          <path class="cls-2" d="M52.44,29.5h2.97c1.98.04,3.71,1.34,4.29,3.23l1.48,5.1c.05.18.11.36.19.53h-8.92v-8.86ZM10.21,12.8c5.91-.59,13.9.22,20.58,1.99l-8.01,21.85c-4.2-2.02-8.17-4.47-11.87-7.31l-.05-.04c-1.79-1.36-3.48-2.85-5.06-4.46l4.41-12.04ZM41.71,22.26c2.75,5.94.17,12.99-5.77,15.75-2.85,1.32-6.11,1.46-9.06.37-.9-.33-1.81-.7-2.74-1.12l8.09-22.08c.98.29,1.92.59,2.82.93,2.96,1.08,5.36,3.29,6.67,6.15ZM67.57,41.97l-3.93-2.97c-.51-.38-.88-.93-1.04-1.56l-1.48-5.12c-.76-2.53-3.07-4.27-5.71-4.3h-8.91v14.79H10.91v-11.63c4.74,3.55,9.94,6.44,15.46,8.59,6.92,2.54,14.58-1.01,17.12-7.93,2.54-6.92-1.01-14.59-7.93-17.13-7.6-2.79-18.52-4.2-25.96-3.34l-.45.05-5.05,13.76.31.33c1.56,1.63,3.24,3.15,5.02,4.53v12.76H3.5v11.87h5.93c0-.5.06-1,.16-1.48h-4.61v-8.9h41.52v8.9h-22.4c.1.49.15.99.16,1.48h24.48c0-.5.06-1,.16-1.48h-.9v-23.7s2.97,0,2.97,0v10.35h11.4c.12.12.26.24.4.35l3.89,2.94c.38.28.61.73.62,1.2v7.37c0,.82-.66,1.48-1.48,1.48h-2.39c.1.49.15.99.15,1.48h2.23c1.64,0,2.96-1.33,2.97-2.97v-7.37c0-.93-.44-1.81-1.19-2.37Z"/>
        </g>
        <g class="cls-8">
          <path d="M56.14,59.19c-2.46,0-4.45-1.99-4.45-4.45s1.99-4.45,4.45-4.45,4.45,1.99,4.45,4.45c0,2.46-1.99,4.45-4.45,4.45h0ZM56.14,48.8c-3.28,0-5.93,2.66-5.93,5.94s2.66,5.94,5.93,5.94,5.93-2.66,5.93-5.94c0-3.28-2.66-5.93-5.93-5.94Z"/>
        </g>
        <g class="cls-7">
          <path class="cls-2" d="M56.14,59.19c-2.46,0-4.45-1.99-4.45-4.45s1.99-4.45,4.45-4.45,4.45,1.99,4.45,4.45c0,2.46-1.99,4.45-4.45,4.45h0ZM56.14,48.8c-3.28,0-5.93,2.66-5.93,5.94s2.66,5.94,5.93,5.94,5.93-2.66,5.93-5.94c0-3.28-2.66-5.93-5.93-5.94Z"/>
        </g>
      </g>
    </g>
  </g>
</svg>