<?xml version="1.0" encoding="UTF-8"?>
<svg id="Camada_2" data-name="Camada 2" xmlns="http://www.w3.org/2000/svg" xmlns:xlink="http://www.w3.org/1999/xlink" viewBox="0 0 72 72">
  <defs>
    <style>
      .cls-1, .cls-2 {
        fill: none;
      }

      .cls-3 {
        clip-path: url(#clippath-17);
      }

      .cls-4 {
        clip-path: url(#clippath-19);
      }

      .cls-5 {
        clip-path: url(#clippath-11);
      }

      .cls-6 {
        clip-path: url(#clippath-16);
      }

      .cls-7 {
        clip-path: url(#clippath-18);
      }

      .cls-8 {
        clip-path: url(#clippath-10);
      }

      .cls-9 {
        clip-path: url(#clippath-15);
      }

      .cls-10 {
        clip-path: url(#clippath-13);
      }

      .cls-11 {
        clip-path: url(#clippath-14);
      }

      .cls-12 {
        clip-path: url(#clippath-12);
      }

      .cls-13 {
        clip-path: url(#clippath-31);
      }

      .cls-14 {
        clip-path: url(#clippath-32);
      }

      .cls-15 {
        clip-path: url(#clippath-33);
      }

      .cls-16 {
        clip-path: url(#clippath-30);
      }

      .cls-17 {
        clip-path: url(#clippath-27);
      }

      .cls-18 {
        clip-path: url(#clippath-29);
      }

      .cls-19 {
        clip-path: url(#clippath-26);
      }

      .cls-20 {
        clip-path: url(#clippath-28);
      }

      .cls-21 {
        clip-path: url(#clippath-20);
      }

      .cls-22 {
        clip-path: url(#clippath-21);
      }

      .cls-23 {
        clip-path: url(#clippath-22);
      }

      .cls-24 {
        clip-path: url(#clippath-23);
      }

      .cls-25 {
        clip-path: url(#clippath-24);
      }

      .cls-26 {
        clip-path: url(#clippath-25);
      }

      .cls-27 {
        clip-path: url(#clippath-1);
      }

      .cls-28 {
        clip-path: url(#clippath-3);
      }

      .cls-29 {
        clip-path: url(#clippath-4);
      }

      .cls-30 {
        clip-path: url(#clippath-2);
      }

      .cls-31 {
        clip-path: url(#clippath-7);
      }

      .cls-32 {
        clip-path: url(#clippath-6);
      }

      .cls-33 {
        clip-path: url(#clippath-9);
      }

      .cls-34 {
        clip-path: url(#clippath-8);
      }

      .cls-35 {
        clip-path: url(#clippath-5);
      }

      .cls-2 {
        stroke: #fff;
        stroke-miterlimit: 10;
        stroke-width: .87px;
      }

      .cls-36 {
        clip-path: url(#clippath);
      }
    </style>
    <clipPath id="clippath">
      <rect class="cls-1" width="72" height="72"/>
    </clipPath>
    <clipPath id="clippath-1">
      <rect class="cls-1" x="0" y="0" width="72" height="72"/>
    </clipPath>
    <clipPath id="clippath-2">
      <rect class="cls-1" x=".53" y=".53" width="71.19" height="71.23"/>
    </clipPath>
    <clipPath id="clippath-3">
      <rect class="cls-1" x=".53" y=".53" width="71.19" height="71.23"/>
    </clipPath>
    <clipPath id="clippath-4">
      <rect class="cls-1" x=".53" y=".53" width="71.19" height="71.23"/>
    </clipPath>
    <clipPath id="clippath-5">
      <rect class="cls-1" x=".53" y=".53" width="71.19" height="71.23"/>
    </clipPath>
    <clipPath id="clippath-6">
      <rect class="cls-1" x=".53" y=".53" width="71.19" height="71.23"/>
    </clipPath>
    <clipPath id="clippath-7">
      <rect class="cls-1" x=".53" y=".53" width="71.19" height="71.23"/>
    </clipPath>
    <clipPath id="clippath-8">
      <rect class="cls-1" x=".53" y=".53" width="71.19" height="71.23"/>
    </clipPath>
    <clipPath id="clippath-9">
      <rect class="cls-1" x=".53" y=".53" width="71.19" height="71.23"/>
    </clipPath>
    <clipPath id="clippath-10">
      <rect class="cls-1" x=".53" y=".53" width="71.19" height="71.23"/>
    </clipPath>
    <clipPath id="clippath-11">
      <rect class="cls-1" x=".53" y=".53" width="71.19" height="71.23"/>
    </clipPath>
    <clipPath id="clippath-12">
      <rect class="cls-1" x=".53" y=".53" width="71.19" height="71.23"/>
    </clipPath>
    <clipPath id="clippath-13">
      <rect class="cls-1" x=".53" y=".53" width="71.19" height="71.23"/>
    </clipPath>
    <clipPath id="clippath-14">
      <rect class="cls-1" x=".53" y=".53" width="71.19" height="71.23"/>
    </clipPath>
    <clipPath id="clippath-15">
      <rect class="cls-1" x=".53" y=".53" width="71.19" height="71.23"/>
    </clipPath>
    <clipPath id="clippath-16">
      <rect class="cls-1" x=".53" y=".53" width="71.19" height="71.23"/>
    </clipPath>
    <clipPath id="clippath-17">
      <rect class="cls-1" x=".53" y=".53" width="71.19" height="71.23"/>
    </clipPath>
    <clipPath id="clippath-18">
      <rect class="cls-1" x=".53" y=".53" width="71.19" height="71.23"/>
    </clipPath>
    <clipPath id="clippath-19">
      <rect class="cls-1" x=".53" y=".53" width="71.19" height="71.23"/>
    </clipPath>
    <clipPath id="clippath-20">
      <rect class="cls-1" x=".53" y=".53" width="71.19" height="71.23"/>
    </clipPath>
    <clipPath id="clippath-21">
      <rect class="cls-1" x=".53" y=".53" width="71.19" height="71.23"/>
    </clipPath>
    <clipPath id="clippath-22">
      <rect class="cls-1" x=".53" y=".53" width="71.19" height="71.23"/>
    </clipPath>
    <clipPath id="clippath-23">
      <rect class="cls-1" x=".53" y=".53" width="71.19" height="71.23"/>
    </clipPath>
    <clipPath id="clippath-24">
      <rect class="cls-1" x=".53" y=".53" width="71.19" height="71.23"/>
    </clipPath>
    <clipPath id="clippath-25">
      <rect class="cls-1" x=".53" y=".53" width="71.19" height="71.23"/>
    </clipPath>
    <clipPath id="clippath-26">
      <rect class="cls-1" x=".53" y=".53" width="71.19" height="71.23"/>
    </clipPath>
    <clipPath id="clippath-27">
      <rect class="cls-1" x=".53" y=".53" width="71.19" height="71.23"/>
    </clipPath>
    <clipPath id="clippath-28">
      <rect class="cls-1" x=".53" y=".53" width="71.19" height="71.23"/>
    </clipPath>
    <clipPath id="clippath-29">
      <rect class="cls-1" x=".53" y=".53" width="71.19" height="71.23"/>
    </clipPath>
    <clipPath id="clippath-30">
      <rect class="cls-1" x=".53" y=".53" width="71.19" height="71.23"/>
    </clipPath>
    <clipPath id="clippath-31">
      <rect class="cls-1" x=".53" y=".53" width="71.19" height="71.23"/>
    </clipPath>
    <clipPath id="clippath-32">
      <rect class="cls-1" x=".53" y=".53" width="71.19" height="71.23"/>
    </clipPath>
    <clipPath id="clippath-33">
      <rect class="cls-1" x=".53" y=".53" width="71.19" height="71.23"/>
    </clipPath>
  </defs>
  <g id="Camada_1-2" data-name="Camada 1">
    <g class="cls-36">
      <g class="cls-27">
        <g class="cls-30">
          <polygon points="58.12 49.43 54.31 44.36 54.31 27.54 52.83 27.54 52.83 44.85 56.27 49.43 58.12 49.43"/>
        </g>
        <g class="cls-28">
          <polygon class="cls-2" points="58.12 49.43 54.31 44.36 54.31 27.54 52.83 27.54 52.83 44.85 56.27 49.43 58.12 49.43"/>
        </g>
        <g class="cls-29">
          <rect x="52.83" y="20.27" width="1.48" height="3.86"/>
        </g>
        <g class="cls-35">
          <rect class="cls-2" x="52.83" y="20.27" width="1.48" height="3.86"/>
        </g>
        <g class="cls-32">
          <path d="M63.9,40.37l-3.06-29.59c-.08-.7-.43-1.34-.98-1.79l-3.94-4.05-.09-.08c-.3-.22-.9-.67-4.86,1.4-.55-.25-1.08-.56-1.57-.91-1.22-.81-2.11-1.4-2.85-1l-6.35,4.46c-.63.48-1.03,1.19-1.11,1.98-3.4.83-6.9,1.25-10.4,1.26-3.59.03-7.16-.32-10.67-1.06l-.18-.22c-2.22-2.63-4.03-4.58-5.47-3.91-.08.04-.15.09-.21.15-3.78,3.8-5.7,6.15-5.7,7l.07,25.77-1.28,9.62h1.5l1.26-9.47s0-.07,0-.1l-.07-25.76c.26-.7,2.8-3.52,5.11-5.85.8.12,2.94,2.66,3.66,3.51.32.38.59.7.82.95v36.73h1.48V12.74c.72.13,1.48.25,2.27.36v12.96c0,.41.33.74.74.74s.74-.33.74-.74v-12.8c.96.1,1.95.17,2.97.22v4.41c0,.41.33.74.74.74s.74-.33.74-.74v-4.36c.49.01.98.02,1.47.02h.46c1.84,0,3.67-.14,5.48-.41v13.65c0,.41.33.74.74.74s.74-.33.74-.74v-13.88c.95-.16,1.93-.35,2.96-.58l-.03,33.26-2.31,3.83h1.73l2.06-3.41.03-35.04c.03-.37.21-.7.5-.93l6.11-4.3c.5.24.98.53,1.43.85,1.26.83,2.25,1.49,2.99,1.03,1.1-.61,2.25-1.1,3.46-1.47l3.79,3.9.07.06c.26.21.43.5.47.83l3.07,29.68c.03.18.99,3.14,2.84,8.8h1.56c-1.32-3.99-2.79-8.51-2.95-9.06Z"/>
        </g>
        <g class="cls-31">
          <path class="cls-2" d="M63.9,40.37l-3.06-29.59c-.08-.7-.43-1.34-.98-1.79l-3.94-4.05-.09-.08c-.3-.22-.9-.67-4.86,1.4-.55-.25-1.08-.56-1.57-.91-1.22-.81-2.11-1.4-2.85-1l-6.35,4.46c-.63.48-1.03,1.19-1.11,1.98-3.4.83-6.9,1.25-10.4,1.26-3.59.03-7.16-.32-10.67-1.06l-.18-.22c-2.22-2.63-4.03-4.58-5.47-3.91-.08.04-.15.09-.21.15-3.78,3.8-5.7,6.15-5.7,7l.07,25.77-1.28,9.62h1.5l1.26-9.47s0-.07,0-.1l-.07-25.76c.26-.7,2.8-3.52,5.11-5.85.8.12,2.94,2.66,3.66,3.51.32.38.59.7.82.95v36.73h1.48V12.74c.72.13,1.48.25,2.27.36v12.96c0,.41.33.74.74.74s.74-.33.74-.74v-12.8c.96.1,1.95.17,2.97.22v4.41c0,.41.33.74.74.74s.74-.33.74-.74v-4.36c.49.01.98.02,1.47.02h.46c1.84,0,3.67-.14,5.48-.41v13.65c0,.41.33.74.74.74s.74-.33.74-.74v-13.88c.95-.16,1.93-.35,2.96-.58l-.03,33.26-2.31,3.83h1.73l2.06-3.41.03-35.04c.03-.37.21-.7.5-.93l6.11-4.3c.5.24.98.53,1.43.85,1.26.83,2.25,1.49,2.99,1.03,1.1-.61,2.25-1.1,3.46-1.47l3.79,3.9.07.06c.26.21.43.5.47.83l3.07,29.68c.03.18.99,3.14,2.84,8.8h1.56c-1.32-3.99-2.79-8.51-2.95-9.06Z"/>
        </g>
        <g class="cls-34">
          <path d="M35.38,46.83c-.41,0-.74-.33-.74-.74v-7.42c0-.41.33-.74.74-.74s.74.33.74.74v7.42c0,.41-.33.74-.74.74Z"/>
        </g>
        <g class="cls-33">
          <path class="cls-2" d="M35.38,46.83c-.41,0-.74-.33-.74-.74v-7.42c0-.41.33-.74.74-.74s.74.33.74.74v7.42c0,.41-.33.74-.74.74Z"/>
        </g>
        <g class="cls-8">
          <path d="M35.38,35.7c-.41,0-.74-.33-.74-.74v-5.19c0-.41.33-.74.74-.74s.74.33.74.74v5.19c0,.41-.33.74-.74.74Z"/>
        </g>
        <g class="cls-5">
          <path class="cls-2" d="M35.38,35.7c-.41,0-.74-.33-.74-.74v-5.19c0-.41.33-.74.74-.74s.74.33.74.74v5.19c0,.41-.33.74-.74.74Z"/>
        </g>
        <g class="cls-12">
          <path d="M30.93,40.9c-.41,0-.74-.33-.74-.74v-10.39c0-.41.33-.74.74-.74s.74.33.74.74v10.39c0,.41-.33.74-.74.74Z"/>
        </g>
        <g class="cls-10">
          <path class="cls-2" d="M30.93,40.9c-.41,0-.74-.33-.74-.74v-10.39c0-.41.33-.74.74-.74s.74.33.74.74v10.39c0,.41-.33.74-.74.74Z"/>
        </g>
        <g class="cls-11">
          <path d="M22.03,37.19c-.41,0-.74-.33-.74-.74v-7.42c0-.41.33-.74.74-.74s.74.33.74.74v7.42c0,.41-.33.74-.74.74Z"/>
        </g>
        <g class="cls-9">
          <path class="cls-2" d="M22.03,37.19c-.41,0-.74-.33-.74-.74v-7.42c0-.41.33-.74.74-.74s.74.33.74.74v7.42c0,.41-.33.74-.74.74Z"/>
        </g>
        <g class="cls-6">
          <path d="M30.93,26.8c-.41,0-.74-.33-.74-.74v-8.16c0-.41.33-.74.74-.74s.74.33.74.74v8.16c0,.41-.33.74-.74.74Z"/>
        </g>
        <g class="cls-3">
          <path class="cls-2" d="M30.93,26.8c-.41,0-.74-.33-.74-.74v-8.16c0-.41.33-.74.74-.74s.74.33.74.74v8.16c0,.41-.33.74-.74.74Z"/>
        </g>
        <g class="cls-7">
          <path d="M26.48,31.25c-.41,0-.74-.33-.74-.74v-9.65c0-.41.33-.74.74-.74s.74.33.74.74v9.65c0,.41-.33.74-.74.74Z"/>
        </g>
        <g class="cls-4">
          <path class="cls-2" d="M26.48,31.25c-.41,0-.74-.33-.74-.74v-9.65c0-.41.33-.74.74-.74s.74.33.74.74v9.65c0,.41-.33.74-.74.74Z"/>
        </g>
        <g class="cls-21">
          <path d="M26.48,43.12c-.41,0-.74-.33-.74-.74v-8.9c0-.41.33-.74.74-.74s.74.33.74.74v8.9c0,.41-.33.74-.74.74Z"/>
        </g>
        <g class="cls-22">
          <path class="cls-2" d="M26.48,43.12c-.41,0-.74-.33-.74-.74v-8.9c0-.41.33-.74.74-.74s.74.33.74.74v8.9c0,.41-.33.74-.74.74Z"/>
        </g>
        <g class="cls-23">
          <path d="M31.67,49.43v-6.31c0-.41-.33-.74-.74-.74s-.74.33-.74.74v6.31h1.48Z"/>
        </g>
        <g class="cls-24">
          <path class="cls-2" d="M31.67,49.43v-6.31c0-.41-.33-.74-.74-.74s-.74.33-.74.74v6.31h1.48Z"/>
        </g>
        <g class="cls-25">
          <path d="M27.22,49.43v-4.08c0-.41-.33-.74-.74-.74s-.74.33-.74.74v4.08h1.48Z"/>
        </g>
        <g class="cls-26">
          <path class="cls-2" d="M27.22,49.43v-4.08c0-.41-.33-.74-.74-.74s-.74.33-.74.74v4.08h1.48Z"/>
        </g>
        <g class="cls-19">
          <path d="M22.77,49.43v-10.02c0-.41-.33-.74-.74-.74s-.74.33-.74.74v10.02h1.48Z"/>
        </g>
        <g class="cls-17">
          <path class="cls-2" d="M22.77,49.43v-10.02c0-.41-.33-.74-.74-.74s-.74.33-.74.74v10.02h1.48Z"/>
        </g>
        <g class="cls-20">
          <path d="M67.26,66.72c-1.43.03-2.84-.24-4.15-.79-2.33-.92-4.93-.92-7.26,0-2.67,1.05-5.64,1.05-8.31,0-2.33-.92-4.92-.92-7.25,0-1.31.55-2.73.82-4.16.79-1.43.03-2.84-.24-4.16-.79-1.15-.49-2.39-.72-3.63-.69-1.25-.03-2.48.21-3.63.69-1.31.55-2.73.82-4.15.79-1.43.03-2.85-.24-4.16-.79-1.15-.49-2.39-.72-3.63-.69-1.25-.03-2.49.21-3.63.69-1.31.55-2.73.82-4.15.79v-1.48c1.25.03,2.49-.21,3.63-.69,1.31-.55,2.73-.82,4.16-.79,1.43-.03,2.84.24,4.16.79,1.15.49,2.39.72,3.63.69,1.24.03,2.48-.21,3.63-.69,1.31-.55,2.73-.82,4.15-.79,1.43-.03,2.84.24,4.16.79,1.15.49,2.39.72,3.63.69,1.25.03,2.48-.21,3.63-.69,1.31-.55,2.73-.82,4.16-.79,1.42-.03,2.84.24,4.15.79,2.33.92,4.93.92,7.26,0,2.67-1.05,5.64-1.05,8.31,0,1.15.49,2.39.72,3.63.69v1.48Z"/>
        </g>
        <g class="cls-18">
          <path class="cls-2" d="M67.26,66.72c-1.43.03-2.84-.24-4.15-.79-2.33-.92-4.93-.92-7.26,0-2.67,1.05-5.64,1.05-8.31,0-2.33-.92-4.92-.92-7.25,0-1.31.55-2.73.82-4.16.79-1.43.03-2.84-.24-4.16-.79-1.15-.49-2.39-.72-3.63-.69-1.25-.03-2.48.21-3.63.69-1.31.55-2.73.82-4.15.79-1.43.03-2.85-.24-4.16-.79-1.15-.49-2.39-.72-3.63-.69-1.25-.03-2.49.21-3.63.69-1.31.55-2.73.82-4.15.79v-1.48c1.25.03,2.49-.21,3.63-.69,1.31-.55,2.73-.82,4.16-.79,1.43-.03,2.84.24,4.16.79,1.15.49,2.39.72,3.63.69,1.24.03,2.48-.21,3.63-.69,1.31-.55,2.73-.82,4.15-.79,1.43-.03,2.84.24,4.16.79,1.15.49,2.39.72,3.63.69,1.25.03,2.48-.21,3.63-.69,1.31-.55,2.73-.82,4.16-.79,1.42-.03,2.84.24,4.15.79,2.33.92,4.93.92,7.26,0,2.67-1.05,5.64-1.05,8.31,0,1.15.49,2.39.72,3.63.69v1.48Z"/>
        </g>
        <g class="cls-16">
          <path d="M67.26,61.16c-1.43.03-2.84-.24-4.15-.79-2.33-.92-4.93-.92-7.26,0-2.67,1.05-5.64,1.05-8.31,0-2.33-.92-4.92-.92-7.25,0-1.31.55-2.73.82-4.16.79-1.43.03-2.84-.24-4.16-.79-1.15-.49-2.39-.72-3.63-.69-1.25-.03-2.48.21-3.63.69-1.31.55-2.73.82-4.15.79-1.43.03-2.85-.24-4.16-.79-1.15-.49-2.39-.72-3.63-.69-1.25-.03-2.49.21-3.63.69-1.31.55-2.73.82-4.15.79v-1.48c1.25.03,2.49-.21,3.63-.69,1.32-.55,2.73-.82,4.16-.79,1.43-.03,2.84.24,4.16.79,1.15.49,2.39.72,3.63.69,1.24.03,2.48-.21,3.63-.69,1.31-.55,2.73-.82,4.15-.79,1.43-.03,2.84.24,4.16.79,1.15.49,2.39.72,3.63.69,1.25.03,2.48-.21,3.63-.69,1.31-.55,2.73-.82,4.16-.79,1.42-.03,2.84.24,4.15.79,2.33.92,4.93.92,7.26,0,2.67-1.05,5.64-1.05,8.31,0,1.15.49,2.39.72,3.63.69v1.48Z"/>
        </g>
        <g class="cls-13">
          <path class="cls-2" d="M67.26,61.16c-1.43.03-2.84-.24-4.15-.79-2.33-.92-4.93-.92-7.26,0-2.67,1.05-5.64,1.05-8.31,0-2.33-.92-4.92-.92-7.25,0-1.31.55-2.73.82-4.16.79-1.43.03-2.84-.24-4.16-.79-1.15-.49-2.39-.72-3.63-.69-1.25-.03-2.48.21-3.63.69-1.31.55-2.73.82-4.15.79-1.43.03-2.85-.24-4.16-.79-1.15-.49-2.39-.72-3.63-.69-1.25-.03-2.49.21-3.63.69-1.31.55-2.73.82-4.15.79v-1.48c1.25.03,2.49-.21,3.63-.69,1.32-.55,2.73-.82,4.16-.79,1.43-.03,2.84.24,4.16.79,1.15.49,2.39.72,3.63.69,1.24.03,2.48-.21,3.63-.69,1.31-.55,2.73-.82,4.15-.79,1.43-.03,2.84.24,4.16.79,1.15.49,2.39.72,3.63.69,1.25.03,2.48-.21,3.63-.69,1.31-.55,2.73-.82,4.16-.79,1.42-.03,2.84.24,4.15.79,2.33.92,4.93.92,7.26,0,2.67-1.05,5.64-1.05,8.31,0,1.15.49,2.39.72,3.63.69v1.48Z"/>
        </g>
        <g class="cls-14">
          <path d="M67.26,55.59c-1.43.03-2.84-.24-4.15-.79-2.33-.92-4.93-.92-7.26,0-2.67,1.05-5.64,1.05-8.31,0-2.33-.92-4.92-.92-7.25,0-1.31.55-2.73.82-4.16.79-1.43.03-2.84-.24-4.16-.79-1.15-.49-2.39-.72-3.63-.69-1.25-.03-2.48.21-3.63.69-1.31.55-2.73.82-4.15.79-1.43.03-2.85-.24-4.16-.79-1.15-.49-2.39-.72-3.63-.69-1.25-.03-2.49.21-3.63.69-1.31.55-2.73.82-4.15.79v-1.48c1.25.03,2.49-.21,3.63-.69,1.31-.55,2.73-.82,4.16-.79,1.43-.03,2.84.24,4.16.79,1.15.49,2.39.72,3.63.69,1.24.03,2.48-.21,3.63-.69,1.31-.55,2.73-.82,4.15-.79,1.43-.03,2.84.24,4.16.79,1.15.49,2.39.72,3.63.69,1.25.03,2.48-.21,3.63-.69,1.31-.55,2.73-.82,4.16-.79,1.42-.03,2.84.24,4.15.79,2.33.92,4.93.92,7.26,0,2.67-1.05,5.64-1.05,8.31,0,1.15.49,2.39.72,3.63.69v1.48Z"/>
        </g>
        <g class="cls-15">
          <path class="cls-2" d="M67.26,55.59c-1.43.03-2.84-.24-4.15-.79-2.33-.92-4.93-.92-7.26,0-2.67,1.05-5.64,1.05-8.31,0-2.33-.92-4.92-.92-7.25,0-1.31.55-2.73.82-4.16.79-1.43.03-2.84-.24-4.16-.79-1.15-.49-2.39-.72-3.63-.69-1.25-.03-2.48.21-3.63.69-1.31.55-2.73.82-4.15.79-1.43.03-2.85-.24-4.16-.79-1.15-.49-2.39-.72-3.63-.69-1.25-.03-2.49.21-3.63.69-1.31.55-2.73.82-4.15.79v-1.48c1.25.03,2.49-.21,3.63-.69,1.31-.55,2.73-.82,4.16-.79,1.43-.03,2.84.24,4.16.79,1.15.49,2.39.72,3.63.69,1.24.03,2.48-.21,3.63-.69,1.31-.55,2.73-.82,4.15-.79,1.43-.03,2.84.24,4.16.79,1.15.49,2.39.72,3.63.69,1.25.03,2.48-.21,3.63-.69,1.31-.55,2.73-.82,4.16-.79,1.42-.03,2.84.24,4.15.79,2.33.92,4.93.92,7.26,0,2.67-1.05,5.64-1.05,8.31,0,1.15.49,2.39.72,3.63.69v1.48Z"/>
        </g>
      </g>
    </g>
  </g>
</svg>