<svg xmlns="http://www.w3.org/2000/svg" xmlns:xlink="http://www.w3.org/1999/xlink" id="Layer_1" x="0px" y="0px" viewBox="0 0 123.5 159.8" style="enable-background:new 0 0 123.5 159.8;" xml:space="preserve"><style type="text/css">	.st0{fill:#0A2D74;}</style><path class="st0" d="M117.1,123.7c-1.9-4.4-5.5-7.9-9.9-9.6L80,103.3c-0.6-0.2-1-0.8-1-1.4v-8.5c5.8-4.3,10.2-10.3,12.6-17.1  c0.9-2.4,1.5-4.9,2-7.5c6.2-0.3,11-5.5,10.7-11.7c0-1-0.2-2.1-0.6-3.1c1.9-1.3,3-3.4,3-5.7v-0.6c0-3.8-3.1-6.8-6.9-6.8h-1.7v-5.2  c0-12.2-6.7-23.5-17.4-29.3c-0.3-3.8-3.6-6.8-7.5-6.5c-1.9,0.1-3.7,1.1-5,2.6c-1.2-0.1-2.4-0.2-3.6-0.2h-5.1c-1.4,0-2.9,0.1-4.3,0.3  c-0.1,0-0.2,0-0.3,0c-2.5-2.9-6.9-3.2-9.9-0.7c-1.4,1.2-2.3,3-2.4,4.9c-0.1,0-0.2,0.1-0.3,0.1c-10.1,6-16.3,16.9-16.3,28.7V41h-2.3  c-3.8,0-6.8,3.1-6.9,6.9v0.6c0,2.3,1.2,4.5,3.2,5.8c-1.9,5.9,1.3,12.2,7.2,14.1c0.8,0.3,1.7,0.4,2.5,0.5c0.4,2.5,1.1,5,1.9,7.4  c2.4,6.8,6.8,12.8,12.6,17.2v8.5c0,0.6-0.4,1.2-1,1.4L16.3,114c-4.4,1.8-8,5.2-9.9,9.6C2.2,133.4,0,144,0,154.6  c0,2.8,2.3,5.1,5.1,5.1h79.1c1.3,0,2.4-1.1,2.4-2.4c0-1.3-1.1-2.4-2.4-2.4H62.5v-5.8h5c2.1,0,3.8-1.7,3.9-3.9v-5.8  c0-2.1-1.7-3.9-3.9-3.9h-5v-6.6h11.1c5.1,0,9.2-4.1,9.2-9.2v-10.4l4.1,1.6v12.2c0,3.7,1.4,7.2,3.9,9.9l3.6,3.8  c0.9,1,1.4,2.2,1.4,3.5V155h-2.2c-1.3,0-2.4,1.1-2.4,2.4c0,1.3,1.1,2.4,2.4,2.4h24.8c2.8,0,5.1-2.3,5.1-5.1  C123.5,144,121.3,133.4,117.1,123.7L117.1,123.7z M49.2,96.4c7.9,4,17.2,4,25.1,0v5.3c0,0-0.1,0.1-0.1,0.1l-1.3,1.6  c-4.9,6.2-13.8,7.2-20,2.3c-0.9-0.7-1.6-1.4-2.3-2.3l-1.3-1.6c0,0-0.1-0.1-0.1-0.1V96.4z M94.2,64.1c0.2-2.9,0.3-5.9,0.1-8.8h4.8  c0.3,0.8,0.5,1.6,0.5,2.4C99.5,60.8,97.3,63.5,94.2,64.1L94.2,64.1z M93.4,35.8V41H80.7V12C88.6,17.4,93.4,26.3,93.4,35.8L93.4,35.8  z M71.4,41V7.3c0-1.3,1-2.3,2.3-2.3C75,5,76,6,76,7.3V41H71.4z M59.6,7.1h5.1c0.7,0,1.4,0,2.1,0.1V41h-10V7.3c0,0,0,0,0,0  C57.7,7.2,58.6,7.1,59.6,7.1L59.6,7.1z M30.9,35.8c0-9.2,4.4-17.8,11.9-23.3v10c0,1.3,1.1,2.4,2.4,2.4c1.3,0,2.4-1.1,2.4-2.4V7.3  c0-1.3,1-2.3,2.3-2.3c1.3,0,2.3,1,2.3,2.3V41h-4.6v-9c0-1.3-1.1-2.4-2.4-2.4c-1.3,0-2.4,1.1-2.4,2.4v9H30.9L30.9,35.8z M21.7,47.8  c0-1.2,1-2.1,2.1-2.1h75.9c1.2,0,2.1,1,2.1,2.1v0.6c0,1.2-1,2.1-2.1,2.1H23.9c-1.2,0-2.1-1-2.1-2.1L21.7,47.8z M24.4,57.7  c0-0.8,0.2-1.6,0.5-2.4h4.4c-0.2,2.9-0.1,5.8,0.1,8.7C26.4,63.3,24.4,60.7,24.4,57.7z M34,55.3h55.6c1,16.6-4.3,28.7-15.6,35.9  c-7.4,4.7-16.9,4.7-24.3,0C38.2,84,33,71.9,34,55.3L34,55.3z M4.7,154.6c0-10,2-19.9,6-29.1c1.4-3.2,4-5.8,7.3-7.1l13.9-5.5v10.3  c0,2.5-0.9,4.9-2.7,6.7l-3.6,3.8c-1.7,1.8-2.7,4.3-2.7,6.8V155H5.1C4.9,155,4.7,154.9,4.7,154.6z M66.7,144.5H48.6v-4.1h18.1V144.5z   M47.7,135.7c-2.1,0-3.8,1.7-3.9,3.9v5.8c0,2.1,1.7,3.8,3.9,3.9h10.1v5.8H27.7v-14.6c0-1.3,0.5-2.6,1.4-3.5l3.6-3.8  c2.5-2.7,4-6.2,3.9-9.9c0,0,0-12.1,0-12.2l4.1-1.6v10.4c0,5.1,4.1,9.2,9.2,9.2h7.9v6.6L47.7,135.7z M73.6,124.4H49.9  c-2.5,0-4.5-2-4.5-4.5v-12.3c0.6-0.3,1.1-0.6,1.6-1c6.6,8.1,18.5,9.4,26.6,2.8c1-0.8,1.9-1.7,2.8-2.8c0.5,0.4,1,0.8,1.6,1v12.3  C78.1,122.4,76.1,124.4,73.6,124.4L73.6,124.4z M118.4,155h-17.9v-14.6c0-2.5-1-4.9-2.7-6.8l-3.6-3.8c-1.7-1.8-2.7-4.2-2.7-6.7  v-10.3l13.9,5.5c3.3,1.3,5.9,3.9,7.3,7.1c4,9.2,6,19.1,6,29.1C118.8,154.9,118.6,155,118.4,155L118.4,155z"></path></svg>