<svg xmlns="http://www.w3.org/2000/svg" xmlns:xlink="http://www.w3.org/1999/xlink" id="Layer_1" x="0px" y="0px" viewBox="0 0 511 511" style="enable-background:new 0 0 511 511;" xml:space="preserve"><style type="text/css">	.st0{fill:#0A2D74;}</style><g>	<path class="st0" d="M221.5,299.4c0,6.2-5,11.1-11.1,11.1s-11.1-5-11.1-11.1s5-11.1,11.1-11.1S221.5,293.3,221.5,299.4z"></path>	<path class="st0" d="M387.4,292.3c-4.3-4.4-11.4-4.3-15.8,0l-53.4,53.4c-7.6,7.6-19.3,9.1-27.8,3.7c-12.3-7.8-24.3-16.4-35.6-25.5   c-4.8-3.8-11.8-3-15.7,1.8c-3.8,4.8-3,11.8,1.8,15.7c12,9.5,24.6,18.5,37.5,26.8c17.3,11,40.7,8.2,55.6-6.7l45.5-45.5l104.6,104.6   l-41.2,41.2c-26.6,26.6-66.6,34.5-99.6,19.6C168.1,402.1,77,267.9,31.4,169.2c-15.7-33.9-8.1-74.7,18.7-101.5l40.6-40.6   l104.6,104.6l-45.5,45.5c-14.9,14.9-17.7,38.3-6.7,55.6c7.9,12.3,16.5,24.4,25.5,35.9c3.8,4.8,10.8,5.7,15.6,1.9   c4.8-3.8,5.7-10.8,1.9-15.6c-8.6-10.9-16.8-22.4-24.2-34.1c-5.5-8.5-3.9-20.2,3.7-27.8l53.4-53.4c4.3-4.4,4.4-11.4,0-15.8L98.5,3.4   c-4.4-4.3-11.4-4.3-15.8,0L34.3,51.9C0.9,85.3-8.4,136.3,11.1,178.6c65,140.5,175,256.1,323,323c41.6,18.8,91.6,8.8,124.5-24.1   l49.1-49.1c4.3-4.4,4.4-11.4,0-15.8L387.4,292.3z"></path></g></svg>